<?xml version="1.0" encoding="UTF-8"?>
<svg width="144px" height="75px" viewBox="0 0 144 75" version="1.1" xmlns="http://www.w3.org/2000/svg" xmlns:xlink="http://www.w3.org/1999/xlink">
    <!-- Generator: Sketch 51 (57462) - http://www.bohemiancoding.com/sketch -->
    <title>logo</title>
    <desc>Created with Sketch.</desc>
    <defs></defs>
    <g id="Wireframes" stroke="none" stroke-width="1" fill="none" fill-rule="evenodd">
        <g id="1280-herbridge-concept-copy-3" transform="translate(-568.000000, -19.000000)">
            <rect fill="#FFFFFF" x="0" y="0" width="1280" height="1918"></rect>
            <g id="logo" transform="translate(573.000000, 30.000000)">
                <path d="M13.3213482,57 L9.74468802,57 L9.74468802,49.3950195 L4.44683645,49.3950195 L4.44683645,57 L0.857969266,57 L0.857969266,39.2265625 L4.44683645,39.2265625 L4.44683645,46.4165039 L9.74468802,46.4165039 L9.74468802,39.2265625 L13.3213482,39.2265625 L13.3213482,57 Z M27.497279,49.3095703 L21.9064587,49.3095703 L21.9064587,54.0214844 L28.5226697,54.0214844 L28.5226697,57 L18.3175915,57 L18.3175915,39.2265625 L28.4982556,39.2265625 L28.4982556,42.2172852 L21.9064587,42.2172852 L21.9064587,46.4165039 L27.497279,46.4165039 L27.497279,49.3095703 Z M38.0843427,50.5058594 L36.3021162,50.5058594 L36.3021162,57 L32.713249,57 L32.713249,39.2265625 L38.4383466,39.2265625 C39.3253953,39.2265625 40.11681,39.3425281 40.8126142,39.5744629 C41.5084185,39.8063976 42.0984191,40.1481911 42.5826337,40.5998535 C43.0668484,41.0515159 43.4371247,41.6109993 43.6934736,42.2783203 C43.9498225,42.9456414 44.0779951,43.7187456 44.0779951,44.5976562 C44.0779951,45.2405631 44.018995,45.8203913 43.9009931,46.3371582 C43.7829912,46.8539251 43.6120945,47.3137187 43.3882978,47.7165527 C43.1645011,48.1193868 42.8939146,48.4713527 42.5765302,48.7724609 C42.2591458,49.0735692 41.9010765,49.3339833 41.5023115,49.5537109 L44.6151045,56.8291016 L44.6151045,57 L40.7576826,57 L38.0843427,50.5058594 Z M36.3021162,47.5151367 L38.3406904,47.5151367 C39.0568398,47.5151367 39.5939438,47.277102 39.9520185,46.8010254 C40.3100932,46.3249488 40.4891279,45.688155 40.4891279,44.890625 C40.4891279,44.4837219 40.4504727,44.1154802 40.3731611,43.7858887 C40.2958495,43.4562972 40.1737804,43.1755383 40.0069502,42.9436035 C39.8401199,42.7116688 39.626499,42.5326341 39.366081,42.4064941 C39.105663,42.2803542 38.7964213,42.2172852 38.4383466,42.2172852 L36.3021162,42.2172852 L36.3021162,47.5151367 Z M48.6591994,57 L48.6591994,39.2265625 L54.1523635,39.2265625 C55.0394122,39.2265625 55.8348957,39.3242178 56.5388381,39.5195312 C57.2427804,39.7148447 57.8388844,40.013914 58.3271681,40.416748 C58.8154518,40.8195821 59.1877626,41.3261688 59.4441115,41.9365234 C59.7004604,42.5468781 59.828633,43.2670857 59.828633,44.097168 C59.828633,44.504071 59.7859088,44.8946921 59.7004592,45.269043 C59.6150095,45.6433938 59.4807335,45.9933252 59.2976271,46.3188477 C59.1145207,46.6443701 58.8825895,46.9393704 58.6018263,47.2038574 C58.3210632,47.4683444 57.9853732,47.6860343 57.5947463,47.8569336 C58.0504777,47.9871426 58.4370298,48.1844876 58.7544142,48.4489746 C59.0717986,48.7134616 59.3281437,49.0206688 59.5234572,49.3706055 C59.7187707,49.7205421 59.8611846,50.1009908 59.9507033,50.5119629 C60.040222,50.922935 60.0849806,51.3440734 60.0849806,51.7753906 C60.0849806,53.5006597 59.6109457,54.80273 58.6628615,55.6816406 C57.7147773,56.5605513 56.3415,57 54.5429885,57 L48.6591994,57 Z M52.2480666,49.2729492 L52.2480666,54.0214844 L54.5429885,54.0214844 C54.8929251,54.0214844 55.1919944,53.9645188 55.4402052,53.8505859 C55.6884161,53.7366531 55.8918646,53.5759288 56.0505568,53.3684082 C56.209249,53.1608876 56.3252146,52.9187839 56.3984572,52.6420898 C56.4716998,52.3653958 56.5083205,52.060223 56.5083205,51.7265625 C56.5083205,50.9697228 56.367941,50.3715842 56.0871779,49.9321289 C55.8064148,49.4926736 55.3323798,49.2729492 54.6650588,49.2729492 L52.2480666,49.2729492 Z M52.2480666,46.6606445 L54.1157424,46.6606445 C54.8318918,46.6606445 55.3628923,46.4755064 55.7087599,46.1052246 C56.0546276,45.7349428 56.2275588,45.1917354 56.2275588,44.4755859 C56.2275588,43.6699178 56.0648,43.0921241 55.7392775,42.7421875 C55.4137551,42.3922509 54.884789,42.2172852 54.1523635,42.2172852 L52.2480666,42.2172852 L52.2480666,46.6606445 Z M70.1837631,50.5058594 L68.4015365,50.5058594 L68.4015365,57 L64.8126693,57 L64.8126693,39.2265625 L70.537767,39.2265625 C71.4248157,39.2265625 72.2162303,39.3425281 72.9120346,39.5744629 C73.6078388,39.8063976 74.1978394,40.1481911 74.6820541,40.5998535 C75.1662688,41.0515159 75.536545,41.6109993 75.7928939,42.2783203 C76.0492429,42.9456414 76.1774154,43.7187456 76.1774154,44.5976562 C76.1774154,45.2405631 76.1184154,45.8203913 76.0004135,46.3371582 C75.8824116,46.8539251 75.7115148,47.3137187 75.4877182,47.7165527 C75.2639215,48.1193868 74.993335,48.4713527 74.6759506,48.7724609 C74.3585662,49.0735692 74.0004968,49.3339833 73.6017318,49.5537109 L76.7145248,56.8291016 L76.7145248,57 L72.8571029,57 L70.1837631,50.5058594 Z M68.4015365,47.5151367 L70.4401107,47.5151367 C71.1562601,47.5151367 71.6933642,47.277102 72.0514389,46.8010254 C72.4095136,46.3249488 72.5885482,45.688155 72.5885482,44.890625 C72.5885482,44.4837219 72.549893,44.1154802 72.4725814,43.7858887 C72.3952699,43.4562972 72.2732008,43.1755383 72.1063705,42.9436035 C71.9395402,42.7116688 71.7259193,42.5326341 71.4655014,42.4064941 C71.2050834,42.2803542 70.8958417,42.2172852 70.537767,42.2172852 L68.4015365,42.2172852 L68.4015365,47.5151367 Z M84.5061783,57 L80.9173111,57 L80.9173111,39.2265625 L84.5061783,39.2265625 L84.5061783,57 Z M89.636699,57 L89.636699,39.2265625 L94.3364061,39.2265625 C95.3618018,39.2265625 96.2956304,39.3954247 97.1379197,39.7331543 C97.9802091,40.0708839 98.7004168,40.5591602 99.2985643,41.197998 C99.8967118,41.8368359 100.360574,42.622147 100.690166,43.5539551 C101.019757,44.4857631 101.184551,45.5497987 101.184551,46.7460938 L101.184551,49.5048828 C101.184551,50.7011779 101.021792,51.763179 100.696269,52.690918 C100.370747,53.618657 99.9068843,54.4019337 99.3046678,55.0407715 C98.7024512,55.6796093 97.9781746,56.1658512 97.1318162,56.4995117 C96.2854578,56.8331722 95.3414569,57 94.299785,57 L89.636699,57 Z M93.2255662,42.2172852 L93.2255662,54.0214844 L94.299785,54.0214844 C94.9345538,54.0214844 95.4635198,53.9380705 95.886699,53.7712402 C96.3098782,53.60441 96.6476027,53.3378925 96.8998826,52.9716797 C97.1521625,52.6054669 97.3311972,52.1375354 97.436992,51.5678711 C97.5427868,50.9982068 97.5956834,50.3105509 97.5956834,49.5048828 L97.5956834,46.7216797 C97.5956834,45.9078735 97.5427868,45.2161487 97.436992,44.6464844 C97.3311972,44.0768201 97.1521625,43.6129575 96.8998826,43.2548828 C96.6476027,42.8968081 96.3119127,42.6343596 95.8928026,42.4675293 C95.4736924,42.300699 94.9548988,42.2172852 94.3364061,42.2172852 L93.2255662,42.2172852 Z M117.960579,54.9858398 C117.773404,55.1892914 117.521128,55.4212227 117.203743,55.6816406 C116.886359,55.9420586 116.489634,56.1882313 116.013558,56.420166 C115.537481,56.6521008 114.977998,56.8474113 114.335091,57.0061035 C113.692184,57.1647957 112.951632,57.2441406 112.113411,57.2441406 C111.120568,57.2441406 110.225394,57.0895198 109.427864,56.7802734 C108.630334,56.4710271 107.946747,56.0030956 107.377083,55.3764648 C106.807419,54.7498341 106.370004,53.9584195 106.064827,53.0021973 C105.75965,52.045975 105.607064,50.9209049 105.607064,49.6269531 L105.607064,46.6240234 C105.607064,45.3300717 105.753546,44.2050015 106.046517,43.2487793 C106.339487,42.2925571 106.756556,41.4970735 107.297737,40.8623047 C107.838918,40.2275359 108.498092,39.7555354 109.275276,39.4462891 C110.052461,39.1370427 110.925255,38.9824219 111.893685,38.9824219 C112.902804,38.9824219 113.773564,39.1085599 114.505989,39.3608398 C115.238415,39.6131198 115.84876,39.9894995 116.337044,40.4899902 C116.825328,40.990481 117.199673,41.6089644 117.460091,42.345459 C117.720509,43.0819536 117.887337,43.9303337 117.960579,44.890625 L114.469368,44.890625 C114.42054,44.3290988 114.341195,43.8611672 114.231331,43.4868164 C114.121467,43.1124656 113.966846,42.8133963 113.767464,42.5895996 C113.568081,42.3658029 113.323943,42.2050786 113.035042,42.1074219 C112.746141,42.0097651 112.402313,41.9609375 112.003548,41.9609375 C111.53154,41.9609375 111.120574,42.0443514 110.770638,42.2111816 C110.420701,42.3780119 110.12977,42.6465639 109.897835,43.0168457 C109.6659,43.3871275 109.492969,43.8672659 109.379036,44.4572754 C109.265103,45.0472849 109.208138,45.761389 109.208138,46.5996094 L109.208138,49.6269531 C109.208138,50.4733115 109.271207,51.1894502 109.397347,51.7753906 C109.523487,52.3613311 109.714728,52.839435 109.971077,53.2097168 C110.227426,53.5799986 110.550909,53.8485506 110.941536,54.0153809 C111.332163,54.1822111 111.791957,54.265625 112.320931,54.265625 C112.638315,54.265625 112.908902,54.2412112 113.132698,54.1923828 C113.356495,54.1435544 113.547737,54.0845544 113.706429,54.0153809 C113.865121,53.9462073 113.995328,53.8750004 114.097054,53.8017578 C114.19878,53.7285153 114.286262,53.6674807 114.359505,53.6186523 L114.359505,50.359375 L111.844856,50.359375 L111.844856,47.6494141 L117.960579,47.6494141 L117.960579,54.9858398 Z M131.794713,49.3095703 L126.203893,49.3095703 L126.203893,54.0214844 L132.820104,54.0214844 L132.820104,57 L122.615026,57 L122.615026,39.2265625 L132.79569,39.2265625 L132.79569,42.2172852 L126.203893,42.2172852 L126.203893,46.4165039 L131.794713,46.4165039 L131.794713,49.3095703 Z" id="HERBRIDGE" fill="#4A4A4A"></path>
                <g id="Group-4" transform="translate(39.000000, 0.000000)">
                    <g id="Group-3">
                        <path d="M10.9850588,19.627451 C13.3683529,10.1019608 21.0131765,2.66219608 30.6561569,0.584156863 C28.8863922,0.202588235 27.0499216,0 25.1659608,0 C13.0169804,0 2.82003922,8.35223529 0,19.627451 L10.9850588,19.627451 Z" id="Stroke-1" fill="#4A4A4A"></path>
                        <path d="M40.3183922,19.627451 C42.7016863,10.1019608 50.3465098,2.66219608 59.9894902,0.584156863 C58.2197255,0.202588235 56.3832549,0 54.4992941,0 C42.3503137,0 32.1533725,8.35223529 29.3333333,19.627451 L40.3183922,19.627451 Z" id="Stroke-1" fill="#9B9B9B" transform="translate(44.661412, 9.813725) scale(-1, 1) translate(-44.661412, -9.813725) "></path>
                        <rect id="Rectangle" fill="#FFFFFF" x="21" y="12" width="46" height="12"></rect>
                    </g>
                </g>
            </g>
        </g>
    </g>
</svg>