<?xml version="1.0" encoding="UTF-8"?>
<svg width="48px" height="26px" viewBox="0 0 48 26" version="1.1" xmlns="http://www.w3.org/2000/svg" xmlns:xlink="http://www.w3.org/1999/xlink">
    <!-- Generator: Sketch 51.2 (57519) - http://www.bohemiancoding.com/sketch -->
    <title>Group 6</title>
    <desc>Created with Sketch.</desc>
    <defs></defs>
    <g id="Wireframes" stroke="none" stroke-width="1" fill="none" fill-rule="evenodd">
        <g id="hbv1-submit-v1b-slider" transform="translate(-541.000000, -580.000000)" fill="#4A4A4A" fill-rule="nonzero">
            <g id="Group-6" transform="translate(538.000000, 577.000000)">
                <g id="Group" transform="translate(3.121951, 3.902439)">
                    <path d="M5.11820091,0.0538007441 L7.45172716,0.0538007441 L11.9936767,12.0273832 L9.48059859,12.0273832 L8.43958661,8.99379909 L3.98773708,8.99379909 L2.94607689,12.0273832 L0.576899545,12.0273832 L5.11820091,0.0538007441 Z M7.79332947,7.12568169 L6.21366184,2.47677883 L4.61584456,7.12697809 L7.79397768,7.12697809 L7.79332947,7.12568169 Z M13.7710459,0.0538007441 L15.8712195,0.0538007441 L19.1926052,5.70806449 L22.459542,0.0538007441 L24.5597156,0.0538007441 L25.1340223,12.0273832 L22.9268954,12.0273832 L22.5314924,3.733642 L19.6599587,8.61654568 L18.6001488,8.61654568 L15.7091691,3.85874494 L15.3150624,12.0273832 L13.1973874,12.0273832 L13.7710459,0.0538007441 Z M30.8790343,0.0538007441 L33.2125606,0.0538007441 L37.7545101,12.0273832 L35.241432,12.0273832 L34.20042,8.99379909 L29.7472741,8.99379909 L28.7069103,12.0273832 L26.3364365,12.0273832 L30.8803307,0.0538007441 L30.8790343,0.0538007441 Z M33.5541629,7.12568169 L31.973847,2.47677883 L30.376678,7.12697809 L33.5541629,7.12697809 L33.5541629,7.12568169 Z M39.1008251,0.0538007441 L41.3630492,0.0538007441 L41.3630492,10.0166614 L47.268167,10.0166614 L47.268167,12.0273832 L39.1008251,12.0273832 L39.1008251,0.0538007441 Z" id="Shape"></path>
                    <path d="M0.265762712,15.5276726 L1.28732865,15.5276726 L1.28732865,16.5485903 L0.265762712,16.5485903 L0.265762712,15.5276726 Z M0.326693675,17.3880116 L1.23676891,17.3880116 L1.23676891,22.0887706 L0.326693675,22.0887706 L0.326693675,17.3880116 Z M2.53057958,18.4089293 L2.53057958,17.8683291 C2.53057958,17.7166499 2.52733857,17.5571922 2.52020835,17.3886598 L3.39009508,17.3886598 L3.41991236,18.0951997 C3.48084332,18.0148227 3.55473832,17.9253708 3.64224556,17.8274924 C3.72975279,17.7302621 3.83670608,17.6408103 3.96634642,17.559785 C4.09339396,17.4787598 4.24312857,17.4106986 4.41555023,17.3575461 C4.58732369,17.3037453 4.78113601,17.2765209 4.99633898,17.2765209 C5.60888962,17.2765209 6.06392724,17.4554246 6.36080364,17.8125837 C6.65703183,18.1690947 6.80547003,18.655246 6.80547003,19.2684448 L6.80547003,22.0881224 L5.89604299,22.0881224 L5.89604299,19.339747 C5.89604299,18.9009144 5.80205374,18.5787582 5.61342704,18.3739264 C5.42544853,18.1677983 5.15968582,18.0653824 4.8161389,18.0653824 C4.55232079,18.0653824 4.33322861,18.1191831 4.15821414,18.2274328 C3.98319967,18.3350343 3.84318809,18.4737495 3.73882761,18.6461711 C3.63381893,18.8185928 3.55733113,19.0137015 3.51195701,19.2327937 C3.46399008,19.4531823 3.44065482,19.6768119 3.44065482,19.9056271 L3.44065482,22.090067 L2.53057958,22.090067 L2.53057958,18.4089293 Z M10.0011046,15.3455279 L10.9708144,15.3455279 L10.9708144,18.1665019 L14.6610269,18.1665019 L14.6610269,15.3455279 L15.6307367,15.3455279 L15.6307367,22.0887706 L14.6623233,22.0887706 L14.6623233,19.0357404 L10.9714626,19.0357404 L10.9714626,22.0887706 L10.0017528,22.0887706 L10.0017528,15.3455279 L10.0011046,15.3455279 Z M21.3122249,21.4010285 C21.2584241,21.4619595 21.1780471,21.5390955 21.0697974,21.6343811 C20.9621959,21.7277222 20.8221844,21.8191186 20.6504109,21.9066259 C20.4779893,21.9941331 20.2757503,22.0699727 20.0430459,22.1334965 C19.8109897,22.1983167 19.5458752,22.2307267 19.249647,22.2307267 C18.8853576,22.2307267 18.5515337,22.1691476 18.2481753,22.0479339 C17.9448169,21.9267201 17.6855362,21.7549467 17.4703332,21.5326135 C17.2538338,21.3096321 17.0878942,21.0432212 16.9692733,20.7333807 C16.8513005,20.4235403 16.7923142,20.078697 16.7923142,19.70274 C16.7923142,19.3591931 16.8493559,19.0363886 16.9634394,18.7369194 C17.0781711,18.436802 17.2402216,18.1775213 17.4495907,17.9590773 C17.6570153,17.7386887 17.9052766,17.5656189 18.1917817,17.4379231 C18.4769905,17.3095792 18.7926647,17.2454072 19.1362117,17.2454072 C19.5406895,17.2454072 19.8881257,17.3231914 20.1778718,17.4787598 C20.467618,17.6330318 20.7048599,17.8385118 20.8908938,18.0945515 C21.0756313,18.3512394 21.2124018,18.6442265 21.2992609,18.9741612 C21.3874163,19.3047441 21.431494,19.648291 21.431494,20.004802 L17.7211873,20.004802 C17.7276693,20.2141711 17.7730434,20.4066871 17.8573096,20.5817015 C17.9415759,20.756716 18.0550112,20.9083952 18.1963191,21.0367391 C18.3376271,21.1644349 18.4996776,21.2655544 18.6824704,21.3400976 C18.8639669,21.4139926 19.0558346,21.4502919 19.2580736,21.4502919 C19.6554212,21.4502919 19.9821149,21.3835271 20.2381546,21.2493493 C20.4941943,21.113227 20.6789318,20.9835866 20.7943117,20.8539463 L21.3096321,21.4003803 L21.3122249,21.4010285 Z M20.4935461,19.3287276 C20.467618,18.9644382 20.3379777,18.6545978 20.1098107,18.3979099 C19.8803473,18.1418702 19.5568946,18.0141745 19.1388045,18.0141745 C18.9236015,18.0141745 18.7304374,18.051122 18.5580157,18.1243687 C18.3868905,18.1995601 18.2403969,18.2967904 18.1185349,18.4186523 C17.9973212,18.5398661 17.903332,18.6792294 17.835919,18.8380389 C17.768506,18.9962001 17.7309103,19.1595469 17.7244283,19.3280794 L20.4941943,19.3280794 L20.4935461,19.3287276 Z M22.4446333,18.3473501 L22.4446333,17.8372154 C22.4446333,17.69137 22.4413923,17.5416354 22.4349103,17.3867152 L23.3035006,17.3867152 L23.3346143,18.1451112 C23.388415,18.064086 23.459069,17.9746341 23.5465763,17.8767557 C23.6340835,17.7795254 23.7410368,17.6907218 23.8641951,17.6096966 C23.9899463,17.5286714 24.1344952,17.4606102 24.2997867,17.402272 C24.4644299,17.3452303 24.654353,17.3167094 24.8702042,17.3167094 C24.9713237,17.3167094 25.0646647,17.3231914 25.148931,17.3361554 C25.2331972,17.3504159 25.3109814,17.3705101 25.3855246,17.3970864 L25.1845821,18.2462307 C25.0614237,18.1995601 24.9071517,18.1749285 24.7178768,18.1749285 C24.5234163,18.1749285 24.3432162,18.2125242 24.1779248,18.2870674 C24.0126333,18.3609624 23.8693807,18.4640265 23.748167,18.5949632 C23.6263051,18.7265482 23.5303712,18.880172 23.4597172,19.0551864 C23.388415,19.2302009 23.3534122,19.4155866 23.3534122,19.6113435 L23.3534122,22.0874742 L22.4439851,22.0874742 L22.4439851,18.3473501 L22.4446333,18.3473501 Z M26.1043803,15.5276726 L27.1252981,15.5276726 L27.1252981,16.5479421 L26.1043803,16.5479421 L26.1043803,15.5270244 L26.1043803,15.5276726 Z M26.1646631,17.3880116 L27.0747383,17.3880116 L27.0747383,22.0874742 L26.1646631,22.0874742 L26.1646631,17.3880116 Z M28.7730269,18.1451112 L27.9238826,18.1451112 L27.9238826,17.3867152 L28.7730269,17.3867152 L28.7730269,15.8504771 L29.6831021,15.8504771 L29.6831021,17.3867152 L31.0572898,17.3867152 L31.0572898,18.1451112 L29.6831021,18.1451112 L29.6831021,20.4604878 C29.6831021,20.8377412 29.7414403,21.0970219 29.859413,21.2383299 C29.9773857,21.3809343 30.1446217,21.4509401 30.3598247,21.4509401 C30.5348392,21.4509401 30.6800364,21.425012 30.7941199,21.3699148 C30.9094998,21.3154659 31.0242315,21.2337925 31.1376668,21.1268392 L31.5525159,21.6829963 C31.3580554,21.8709748 31.1571129,22.0083936 30.9516329,22.0913634 C30.7468012,22.1756296 30.5024291,22.2184109 30.2191649,22.2184109 C29.7200496,22.2184109 29.355112,22.0822885 29.1224076,21.813933 C28.889055,21.5442811 28.7736751,21.12295 28.7736751,20.5499396 L28.7736751,18.1438148 L28.7730269,18.1451112 Z M35.1824456,19.8641422 C35.1552212,19.8576602 35.1027168,19.8485854 35.0255808,19.8382141 C34.9477966,19.8284911 34.8583448,19.8200645 34.7578735,19.8135825 L34.4337726,19.7941364 C34.3196891,19.786358 34.2081984,19.783117 34.1005969,19.783117 C33.8439091,19.783117 33.6364845,19.8142307 33.4783233,19.8738652 C33.3195138,19.9354444 33.1950591,20.011284 33.1043109,20.1020322 C33.0135626,20.1927805 32.9506871,20.2939 32.9163324,20.4053907 C32.8839223,20.5168814 32.8664208,20.6225382 32.8664208,20.7230095 C32.8664208,20.9796974 32.9539281,21.1735097 33.1295907,21.3050947 C33.3046052,21.4366796 33.5470327,21.502148 33.8575213,21.502148 C34.0325358,21.502148 34.1991236,21.4716825 34.3566366,21.4113998 C34.5160943,21.3504688 34.6561058,21.2687954 34.7779678,21.1683241 C34.8985333,21.0678528 34.9964117,20.9498801 35.0696585,20.8150542 C35.1442017,20.6802282 35.1817974,20.5428094 35.1817974,20.400205 L35.1817974,19.8647904 L35.1824456,19.8641422 Z M35.1921687,21.521594 C35.0171542,21.7575395 34.7863944,21.9332021 34.4998892,22.0466375 C34.213384,22.1620174 33.9184523,22.2190591 33.6150938,22.2190591 C33.4206333,22.2190591 33.2261728,22.193131 33.0336569,22.1425713 C32.8417892,22.0920116 32.6667747,22.0083936 32.5086135,21.8897726 C32.3498041,21.7730963 32.2221083,21.6207689 32.1242298,21.4360314 C32.0269996,21.2499975 31.9777363,21.0224787 31.9777363,20.7528268 C31.9777363,20.2472294 32.1546953,19.8427516 32.5092617,19.5406895 C32.8618834,19.2360347 33.3726664,19.0850037 34.0390178,19.0850037 C34.1479157,19.0850037 34.2619992,19.0882447 34.3825647,19.0947267 C34.505723,19.1012088 34.6191583,19.1076908 34.727408,19.1154692 C34.8350095,19.1219512 34.929647,19.1284332 35.010024,19.1349153 C35.0910492,19.1413973 35.1487391,19.1491757 35.1824456,19.1556577 L35.1824456,18.9838842 C35.1824456,18.6325589 35.0761406,18.3810566 34.8635304,18.2300256 C34.6515684,18.0783464 34.3631186,18.003155 33.9994775,18.003155 C33.6429665,18.003155 33.3590542,18.051122 33.1503332,18.1490004 C32.9416122,18.2462307 32.7659496,18.3460537 32.6252898,18.4471732 L32.2000695,17.8313816 C32.2810947,17.7633204 32.3783249,17.6952592 32.4930566,17.6284944 C32.6071401,17.5604332 32.7419661,17.4988541 32.8968863,17.4405159 C33.0524547,17.3834742 33.2274692,17.3368036 33.4219297,17.2992079 C33.6176866,17.2622604 33.8432609,17.2434626 34.0999487,17.2434626 C34.7060174,17.2434626 35.1824456,17.3906044 35.5298818,17.6842398 C35.8766697,17.9759305 36.0503878,18.3927243 36.0503878,18.9320281 L36.0503878,21.6667912 C36.0503878,21.8314345 36.0529806,21.9714461 36.0594626,22.0861778 L35.2103183,22.0861778 L35.1908723,21.5196494 L35.1921687,21.521594 Z M40.6714179,18.2157652 C40.610487,18.1963191 40.5080711,18.1671501 40.3628739,18.1302026 C40.2183249,18.0939033 39.9998809,18.0751054 39.710783,18.0751054 C39.4547433,18.0751054 39.2226871,18.1172385 39.0133179,18.2015048 C38.8045969,18.285771 38.6243969,18.4037437 38.4727177,18.5554229 C38.3210384,18.7071021 38.2030657,18.8873022 38.1187995,19.0960232 C38.0345333,19.3053923 37.9924002,19.5342075 37.9924002,19.783117 C37.9924002,19.9996164 38.0183282,20.2018553 38.0682398,20.390482 C38.1187995,20.5784605 38.1998247,20.743752 38.3106672,20.8857081 C38.4221579,21.0283125 38.5621695,21.1385068 38.7307019,21.219532 C38.8992344,21.3005573 39.1047143,21.341394 39.3464936,21.341394 C39.569475,21.341394 39.7652319,21.3076875 39.9331162,21.2402745 C40.1016486,21.1728615 40.2397156,21.0834097 40.3479653,20.971919 C40.4555668,20.8617247 40.5359438,20.7359735 40.5903927,20.5979066 C40.6448417,20.4598396 40.6720661,20.316587 40.6720661,20.168797 L40.6720661,18.2177098 L40.6714179,18.2157652 Z M37.9217462,23.0481091 C38.0773146,23.1563588 38.2672377,23.2490517 38.4921637,23.3268359 C38.7190343,23.4046201 38.9932236,23.4422158 39.3166763,23.4422158 C39.7684729,23.4422158 40.1055378,23.3177611 40.327871,23.0682034 C40.5502042,22.8186457 40.6610467,22.4913038 40.6610467,22.0874742 L40.6610467,21.5105746 C40.6143762,21.5514113 40.5508524,21.6078049 40.4743646,21.6778107 C40.3965804,21.7491129 40.2993501,21.8158776 40.1813774,21.8800496 C40.0634047,21.9448698 39.9233931,22.0012633 39.7613427,22.0518231 C39.5992923,22.1023828 39.4145548,22.1276627 39.2058338,22.1276627 C38.8622869,22.1276627 38.5576321,22.0680281 38.290573,21.9500554 C38.0248103,21.8320827 37.8005325,21.6713286 37.6183878,21.4652005 C37.4368913,21.2590723 37.2981761,21.0134039 37.2035387,20.7262505 C37.1095494,20.4410418 37.0622307,20.1286085 37.0622307,19.79284 C37.0622307,19.4279024 37.1270508,19.0927821 37.2547466,18.7861827 C37.3824423,18.4795833 37.5626424,18.2131724 37.7953468,17.9875982 C38.0274031,17.7607276 38.3054816,17.5857131 38.6289343,17.4625548 C38.9530351,17.3368036 39.3127871,17.2745763 39.7101348,17.2745763 C40.0945184,17.2745763 40.4516776,17.3082828 40.7816122,17.3756957 C41.1121951,17.4424605 41.3779578,17.5170037 41.580845,17.5973807 L41.580845,22.0861778 C41.580845,22.7667896 41.3831434,23.2937776 40.9890368,23.66779 C40.5949301,24.0418024 40.0407177,24.2291327 39.3263993,24.2291327 C38.8480265,24.2291327 38.4668838,24.1772766 38.1836197,24.0722679 C37.9003555,23.9685556 37.6715403,23.8492865 37.4965258,23.7144605 L37.9204498,23.0468127 L37.9217462,23.0481091 Z M47.110654,21.4003803 C47.0568532,21.4613113 46.975828,21.5384473 46.8682265,21.6337329 C46.7606251,21.727074 46.6206135,21.8184704 46.44884,21.9059777 C46.2764184,21.9934849 46.0741794,22.0693245 45.841475,22.1328483 C45.6081224,22.1976685 45.3443043,22.2300785 45.0480761,22.2300785 C44.6831385,22.2300785 44.3499628,22.1684994 44.0466044,22.0472857 C43.743246,21.9260719 43.4839653,21.7542985 43.2687623,21.5319653 C43.0522629,21.3089839 42.8863233,21.042573 42.7677024,20.7327325 C42.6497296,20.4228921 42.5907433,20.0780488 42.5907433,19.7020918 C42.5907433,19.3585449 42.6471368,19.0357404 42.7618685,18.7362712 C42.8766002,18.4361538 43.0380025,18.1768731 43.2480198,17.9584291 C43.4554444,17.7380405 43.7037057,17.5649706 43.9902108,17.4372749 C44.2754196,17.308931 44.5910938,17.244759 44.9346408,17.244759 C45.3391186,17.244759 45.6865548,17.3225432 45.976301,17.4781116 C46.2660471,17.6323836 46.503289,17.8378636 46.6893229,18.0939033 C46.8740604,18.3505912 47.0108309,18.6435783 47.09769,18.973513 C47.1858454,19.3040959 47.2292749,19.6476428 47.2292749,20.0041538 L43.5196164,20.0041538 C43.5260984,20.2135229 43.5714725,20.4060389 43.6557387,20.5810533 C43.740005,20.7560678 43.8527921,20.907747 43.9947482,21.0360909 C44.1360562,21.1637867 44.2981067,21.2649062 44.4796031,21.3394494 C44.6610996,21.4133444 44.8536155,21.4496437 45.0565027,21.4496437 C45.4538504,21.4496437 45.780544,21.3828789 46.0365837,21.2487011 C46.2926234,21.1125788 46.4773609,20.9829384 46.5927408,20.8532981 L47.1080612,21.3997321 L47.110654,21.4003803 Z M46.2919752,19.3280794 C46.2647507,18.96379 46.1364068,18.6539496 45.9075916,18.3972617 C45.6787764,18.141222 45.3553237,18.0135263 44.9372336,18.0135263 C44.7220306,18.0135263 44.5288665,18.0504737 44.3557966,18.1237205 C44.1840232,18.1989119 44.0381778,18.2961422 43.9163158,18.4180041 C43.7951021,18.5392179 43.7004647,18.6785812 43.6330517,18.8373907 C43.5656387,18.9955519 43.5293394,19.1588987 43.5228574,19.3274312 L46.2919752,19.3274312 L46.2919752,19.3280794 Z" id="Shape"></path>
                </g>
            </g>
        </g>
    </g>
</svg>