<?xml version="1.0" encoding="UTF-8"?>
<svg width="69px" height="10px" viewBox="0 0 69 10" version="1.1" xmlns="http://www.w3.org/2000/svg" xmlns:xlink="http://www.w3.org/1999/xlink">
    <!-- Generator: Sketch 51.2 (57519) - http://www.bohemiancoding.com/sketch -->
    <title>Group</title>
    <desc>Created with Sketch.</desc>
    <defs></defs>
    <g id="Wireframes" stroke="none" stroke-width="1" fill="none" fill-rule="evenodd">
        <g id="hbv1-filter-date-picker" transform="translate(-1148.000000, -187.000000)" fill="#4A4A4A" fill-rule="nonzero">
            <g id="logo-eamena" transform="translate(1142.000000, 172.000000)">
                <g transform="translate(6.000000, 15.000000)" id="Group">
                    <g>
                        <polygon id="Fill-1" points="0 0 0 10 8.80344828 10 8.80344828 7.7352701 3.23355345 7.7352701 3.23355345 5.76398633 8.25503166 5.76398633 8.25503166 3.72442033 3.23355345 3.72442033 3.23355345 2.13507739 8.64674309 2.13507739 8.64674309 0"></polygon>
                        <path d="M13.4601207,0 L9.51724138,10 L12.8270545,10 L13.338441,8.34918207 L17.0185792,8.34918207 L17.5434396,10 L20.937931,10 L16.9959845,0 L13.4601207,0 Z M15.1882009,2.59210774 L16.3461277,6.18687557 L14.0424007,6.18687557 L15.1882009,2.59210774 Z" id="Fill-2"></path>
                        <polygon id="Fill-3" points="29.7286978 0 28.08302 6.0845569 26.4254297 0 22.1275862 0 22.1275862 10 24.8040988 10 24.8040988 2.37385585 26.8625285 10 29.2852248 10 31.3476253 2.37385585 31.3476253 10 34.0241379 10 34.0241379 0"></polygon>
                        <polygon id="Fill-4" points="35.9275862 0 35.9275862 10 44.7310345 10 44.7310345 7.7352701 39.1611396 7.7352701 39.1611396 5.76398633 44.182618 5.76398633 44.182618 3.72442033 39.1611396 3.72442033 39.1611396 2.13507739 44.5743293 2.13507739 44.5743293 0"></polygon>
                        <polygon id="Fill-5" points="53.5840747 0 53.5840747 5.53243407 49.6495001 0 46.6344828 0 46.6344828 10 49.6708706 10 49.6708706 4.50924743 53.5840747 10 56.6275862 10 56.6275862 0"></polygon>
                        <path d="M61.5221219,0 L57.5793103,10 L60.8891535,10 L61.4004409,8.34918207 L65.0806125,8.34918207 L65.6054779,10 L69,10 L65.0580176,0 L61.5221219,0 Z M63.2502176,2.59210774 L64.4082587,6.18687557 L62.1045107,6.18687557 L63.2502176,2.59210774 Z" id="Fill-6"></path>
                    </g>
                </g>
            </g>
        </g>
    </g>
</svg>