<?xml version="1.0" encoding="UTF-8"?>
<svg width="111px" height="62px" viewBox="0 0 111 62" version="1.1" xmlns="http://www.w3.org/2000/svg" xmlns:xlink="http://www.w3.org/1999/xlink">
    <!-- Generator: Sketch 51.3 (57544) - http://www.bohemiancoding.com/sketch -->
    <title>hb-logo</title>
    <desc>Created with Sketch.</desc>
    <defs></defs>
    <g id="Wireframes" stroke="none" stroke-width="1" fill="none" fill-rule="evenodd">
        <g id="hbv1-submit-v1b-slider" transform="translate(-587.000000, -31.000000)">
            <g id="hb-logo" transform="translate(587.000000, 31.000000)">
                <path d="M47.8075,57.24 L42.8875,57.24 C41.7275,57.24 41.1475,57.26 40.3275,57.3 C40.4675,56.46 40.5075,55.88 40.5075,54.6 L40.5075,43.74 C40.5075,42.82 40.4475,42.1 40.3475,41.28 C41.1875,41.32 41.5075,41.32 42.8675,41.32 L47.5875,41.32 C50.6875,41.32 52.4275,42.72 52.4275,45.22 C52.4275,46.44 52.0675,47.34 51.3075,48.04 C50.8675,48.46 50.5075,48.64 49.7275,48.88 C50.7475,49.1 51.2075,49.3 51.7475,49.8 C52.5675,50.56 52.9875,51.56 52.9875,52.86 C52.9875,55.66 51.1275,57.24 47.8075,57.24 Z M43.1475,47.84 L47.3075,47.84 C48.8275,47.84 49.7275,47.02 49.7275,45.66 C49.7275,45.02 49.5275,44.48 49.2075,44.18 C48.7675,43.78 48.0875,43.56 47.2875,43.56 L43.1475,43.56 L43.1475,47.84 Z M43.1475,50.06 L43.1475,54.98 L47.4475,54.98 C49.2275,54.98 50.2275,54.1 50.2275,52.48 C50.2275,51.68 50.0275,51.14 49.5875,50.74 C49.0875,50.3 48.3275,50.06 47.4075,50.06 L43.1475,50.06 Z M63.795,45.76 L63.095,48.28 C62.255,48.04 61.835,47.96 61.315,47.96 C60.315,47.96 59.555,48.28 58.995,48.94 C58.495,49.52 58.295,49.98 58.175,50.94 L58.175,54.64 C58.175,55.72 58.215,56.3 58.315,57.24 L55.455,57.24 C55.555,56.26 55.595,55.68 55.595,54.64 L55.595,48.36 C55.595,47.14 55.575,46.58 55.455,45.76 L58.175,45.76 L58.175,47.64 C58.895,46.22 60.135,45.54 61.935,45.54 C62.415,45.54 62.895,45.6 63.795,45.76 Z M65.4425,41.32 L68.3825,41.32 L68.3825,43.86 L65.4425,43.86 L65.4425,41.32 Z M65.4425,45.76 L68.3625,45.76 C68.2625,46.5 68.2225,47.16 68.2225,48.38 L68.2225,54.62 C68.2225,55.72 68.2625,56.4 68.3625,57.24 L65.4425,57.24 C65.5625,56.34 65.6025,55.64 65.6025,54.64 L65.6025,48.36 C65.6025,47.26 65.5625,46.58 65.4425,45.76 Z M80.03,57.24 L80.03,56.26 C80.03,56.02 80.03,55.8 80.05,55.54 C79.01,57 77.95,57.52 76.01,57.52 C74.61,57.52 73.55,57.2 72.67,56.5 C71.33,55.46 70.59,53.64 70.59,51.48 C70.59,47.82 72.69,45.5 75.99,45.5 C77.23,45.5 78.25,45.8 79.03,46.42 C79.39,46.7 79.61,46.94 80.05,47.52 C80.05,47.28 80.05,47.28 80.03,46.88 C80.01,46.74 80.01,46.36 80.01,46.02 L80.01,44.02 C80.01,42.82 79.97,42.16 79.87,41.32 L82.69,41.32 C82.59,42.28 82.55,42.98 82.55,44 L82.55,54.54 C82.55,55.72 82.59,56.36 82.69,57.24 L80.03,57.24 Z M73.19,51.5 C73.19,53.88 74.47,55.38 76.47,55.38 C77.53,55.38 78.55,54.88 79.15,54.06 C79.65,53.4 79.93,52.42 79.93,51.38 C79.93,50.4 79.55,49.36 78.97,48.72 C78.35,48.04 77.33,47.6 76.37,47.6 C74.43,47.6 73.19,49.12 73.19,51.5 Z M85.1375,59.08 L87.1375,57.7 C87.9175,58.78 88.7975,59.22 90.2375,59.22 C91.7775,59.22 92.9575,58.68 93.5175,57.72 C93.8575,57.12 93.9975,56.42 94.0375,55.06 C93.0375,56.32 91.8575,56.88 90.1175,56.88 C86.9375,56.88 84.8975,54.7 84.8975,51.28 C84.8975,47.82 86.9975,45.58 90.2375,45.58 C92.0175,45.58 93.1975,46.12 94.0575,47.34 C94.0175,46.94 94.0175,46.9 94.0175,46.68 L94.0175,45.76 L96.6975,45.76 C96.5975,46.62 96.5575,47.18 96.5575,48.26 L96.5575,54.96 C96.5575,57.36 96.0375,58.9 94.8775,59.88 C93.8775,60.7 92.2175,61.16 90.1575,61.16 C87.8175,61.16 86.4975,60.62 85.1375,59.08 Z M87.5175,51.34 C87.5175,52.52 87.8375,53.5 88.4375,54.1 C88.9375,54.64 89.7975,55 90.5575,55 C91.6575,55 92.7775,54.36 93.3375,53.42 C93.7175,52.8 93.8975,52.06 93.8975,51.14 C93.8975,49.86 93.4975,48.86 92.6975,48.18 C92.1375,47.72 91.4775,47.46 90.7575,47.46 C88.7575,47.46 87.5175,48.96 87.5175,51.34 Z M110.165,52.16 L101.465,52.16 C101.565,53.26 101.745,53.82 102.205,54.4 C102.785,55.12 103.685,55.52 104.705,55.52 C105.685,55.52 106.525,55.16 107.105,54.52 C107.345,54.24 107.485,54.02 107.685,53.48 L110.045,54.24 C109.585,55.2 109.325,55.58 108.825,56.08 C107.785,57.1 106.385,57.62 104.705,57.62 C101.165,57.62 98.925,55.26 98.925,51.52 C98.925,47.82 101.145,45.4 104.565,45.4 C106.905,45.4 108.745,46.56 109.545,48.56 C109.925,49.52 110.065,50.24 110.125,51.6 C110.125,51.64 110.125,51.7 110.165,52.16 Z M101.525,50.18 L107.565,50.18 C107.425,49.3 107.185,48.76 106.685,48.26 C106.145,47.72 105.465,47.46 104.525,47.46 C102.965,47.46 101.825,48.5 101.525,50.18 Z" id="Bridge" fill="#9B9B9B"></path>
                <path d="M11.28875,41.32 L14.26875,41.32 C14.14875,42.14 14.10875,42.74 14.10875,43.88 L14.10875,54.66 C14.10875,55.82 14.14875,56.4 14.26875,57.24 L11.28875,57.24 C11.40875,56.46 11.44875,55.84 11.44875,54.66 L11.44875,50.14 L3.40875,50.14 L3.40875,54.66 C3.40875,55.82 3.44875,56.42 3.56875,57.24 L0.58875,57.24 C0.70875,56.48 0.74875,55.84 0.74875,54.66 L0.74875,43.9 C0.74875,42.72 0.70875,42.1 0.58875,41.32 L3.56875,41.32 C3.44875,42.16 3.40875,42.82 3.40875,43.88 L3.40875,47.74 L11.44875,47.74 L11.44875,43.9 C11.44875,42.76 11.40875,42.04 11.28875,41.32 Z M27.87625,52.16 L19.17625,52.16 C19.27625,53.26 19.45625,53.82 19.91625,54.4 C20.49625,55.12 21.39625,55.52 22.41625,55.52 C23.39625,55.52 24.23625,55.16 24.81625,54.52 C25.05625,54.24 25.19625,54.02 25.39625,53.48 L27.75625,54.24 C27.29625,55.2 27.03625,55.58 26.53625,56.08 C25.49625,57.1 24.09625,57.62 22.41625,57.62 C18.87625,57.62 16.63625,55.26 16.63625,51.52 C16.63625,47.82 18.85625,45.4 22.27625,45.4 C24.61625,45.4 26.45625,46.56 27.25625,48.56 C27.63625,49.52 27.77625,50.24 27.83625,51.6 C27.83625,51.64 27.83625,51.7 27.87625,52.16 Z M19.23625,50.18 L25.27625,50.18 C25.13625,49.3 24.89625,48.76 24.39625,48.26 C23.85625,47.72 23.17625,47.46 22.23625,47.46 C20.67625,47.46 19.53625,48.5 19.23625,50.18 Z M38.42375,45.76 L37.72375,48.28 C36.88375,48.04 36.46375,47.96 35.94375,47.96 C34.94375,47.96 34.18375,48.28 33.62375,48.94 C33.12375,49.52 32.92375,49.98 32.80375,50.94 L32.80375,54.64 C32.80375,55.72 32.84375,56.3 32.94375,57.24 L30.08375,57.24 C30.18375,56.26 30.22375,55.68 30.22375,54.64 L30.22375,48.36 C30.22375,47.14 30.20375,46.58 30.08375,45.76 L32.80375,45.76 L32.80375,47.64 C33.52375,46.22 34.76375,45.54 36.56375,45.54 C37.04375,45.54 37.52375,45.6 38.42375,45.76 Z" id="Her" fill="#4A4A4A"></path>
                <g id="bridge" transform="translate(17.000000, 0.000000)">
                    <path d="M13.8368123,24.6316643 C16.8388165,12.6775559 26.4682586,3.34094938 38.6145849,0.73309345 C36.3853841,0.254240116 34.0721604,0 31.6991179,0 C16.3962266,0 3.55212965,10.4817205 0,24.6316643 L13.8368123,24.6316643 Z" id="Stroke-1" fill="#4A4A4A"></path>
                    <path d="M57.5857468,15.059519 C52.9733625,7.86103924 45.5992119,2.59046121 36.9483525,0.73309345 C39.1775533,0.254240116 41.4907771,0 43.8638196,0 C55.446225,0 65.6200789,6.00458662 71.4226093,15.059519 L57.5857468,15.059519 Z" id="Combined-Shape" fill="#9B9B9B"></path>
                </g>
            </g>
        </g>
    </g>
</svg>